<svg width="30" height="9" viewBox="0 0 30 9" fill="none" xmlns="http://www.w3.org/2000/svg">
<path d="M16.6812 0.843707L14.8644 4.75824H14.6806V0.000244141H12.0851V8.00233H14.2372C14.8212 8.00233 15.3402 7.6671 15.589 7.14805L17.4166 3.24433H17.6004V8.00233H20.1958V0.000244141H18.0114C17.449 0.000244141 16.9191 0.335467 16.6812 0.843707Z" fill="#319B42"/>
<path d="M6.97243 1.04917L5.90182 4.75824H5.71798L4.63656 1.04917C4.45271 0.421975 3.87956 0.000244141 3.2307 0.000244141H0.667725V8.00233H3.26315V3.24433H3.44699L4.93935 8.00233H6.66963L8.162 3.24433H8.34584V8.00233H10.9413V0.000244141H8.37829C7.72943 0.000244141 7.14546 0.421975 6.97243 1.04917Z" fill="#319B42"/>
<path d="M21.3244 3.56733V8.00233H23.9206V5.40623H26.7116C27.9232 5.40623 28.9509 4.63822 29.3295 3.56733H21.3244Z" fill="#319B42"/>
<path d="M26.6357 0.000244141H20.8591C21.2161 1.90405 22.882 3.24537 24.8833 3.24537H29.3726C29.4051 3.07229 29.4267 2.87758 29.4267 2.68288C29.4267 1.13604 28.1827 0.000244141 26.6357 0.000244141Z" fill="url(#paint0_linear_131_22)"/>
<defs>
<linearGradient id="paint0_linear_131_22" x1="20.8591" y1="1.6228" x2="29.4267" y2="1.6228" gradientUnits="userSpaceOnUse">
<stop stop-color="#00A3E1"/>
<stop offset="0.3042" stop-color="#009ADD"/>
<stop offset="0.7987" stop-color="#0082D4"/>
<stop offset="1" stop-color="#0076CF"/>
</linearGradient>
</defs>
</svg>
