<svg width="20" height="16" viewBox="0 0 20 16" fill="none" xmlns="http://www.w3.org/2000/svg">
<path fill-rule="evenodd" clip-rule="evenodd" d="M3.03393 2.05857C2.26586 2.75224 1.76681 3.83284 1.9949 5.42928C2.22329 7.02783 3.26491 8.68522 4.80433 10.3478C6.25862 11.9184 8.10959 13.4437 9.99992 14.874C11.8903 13.4437 13.7413 11.9184 15.1956 10.3478C16.735 8.68521 17.7766 7.02783 18.0049 5.4293C18.233 3.83285 17.7339 2.75224 16.9659 2.05856C16.1766 1.34572 15.0549 1 13.9999 1C12.1319 1 11.0923 2.08479 10.5176 2.68443C10.4581 2.7466 10.4035 2.80356 10.3535 2.85355C10.1582 3.04882 9.84163 3.04882 9.64637 2.85355C9.59638 2.80356 9.54179 2.7466 9.48221 2.68443C8.90754 2.08479 7.86794 1 5.99992 1C4.94492 1 3.82322 1.34573 3.03393 2.05857ZM2.36367 1.31643C3.37366 0.404274 4.75199 0 5.99992 0C8.0712 0 9.34536 1.11257 9.99993 1.77862C10.6545 1.11257 11.9286 0 13.9999 0C15.2479 0 16.6262 0.404275 17.6361 1.31644C18.6673 2.24776 19.2668 3.66715 18.9949 5.5707C18.7233 7.47217 17.5149 9.31479 15.9293 11.0272C14.3355 12.7486 12.3063 14.3952 10.2999 15.9C10.1221 16.0333 9.8777 16.0333 9.69992 15.9C7.6935 14.3952 5.6644 12.7485 4.07056 11.0272C2.485 9.31478 1.27662 7.47217 1.00495 5.57072C0.732982 3.66716 1.33246 2.24776 2.36367 1.31643Z" fill="black"/>
</svg>
