<svg width="29" height="26" viewBox="0 0 29 26" fill="none" xmlns="http://www.w3.org/2000/svg">
<path fill-rule="evenodd" clip-rule="evenodd" d="M13.5 6.33325C13.5 5.50482 14.1716 4.83325 15 4.83325H27C27.8284 4.83325 28.5 5.50482 28.5 6.33325C28.5 7.16168 27.8284 7.83325 27 7.83325H15C14.1716 7.83325 13.5 7.16168 13.5 6.33325Z" fill="#CCCCCC"/>
<path fill-rule="evenodd" clip-rule="evenodd" d="M14.5 12.3333C14.5 11.5048 15.1716 10.8333 16 10.8333H27C27.8284 10.8333 28.5 11.5048 28.5 12.3333C28.5 13.1617 27.8284 13.8333 27 13.8333H16C15.1716 13.8333 14.5 13.1617 14.5 12.3333Z" fill="#CCCCCC"/>
<path fill-rule="evenodd" clip-rule="evenodd" d="M13.5 18.3333C13.5 17.5048 14.1716 16.8333 15 16.8333H27C27.8284 16.8333 28.5 17.5048 28.5 18.3333C28.5 19.1617 27.8284 19.8333 27 19.8333H15C14.1716 19.8333 13.5 19.1617 13.5 18.3333Z" fill="#CCCCCC"/>
<path fill-rule="evenodd" clip-rule="evenodd" d="M23.1845 24.7847C21.7864 26.1829 19.5196 26.1829 18.1215 24.7847L14.9232 21.5864C13.4123 22.3668 11.698 22.8067 9.88675 22.8067C3.81895 22.8067 -1.09998 17.8878 -1.09998 11.82C-1.09998 5.75218 3.81895 0.833252 9.88675 0.833252C15.9546 0.833252 20.8735 5.75218 20.8735 11.82C20.8735 13.4541 20.5154 15.01 19.8716 16.4089L23.1845 19.7217C24.5826 21.1199 24.5826 23.3866 23.1845 24.7847Z" fill="white"/>
<path fill-rule="evenodd" clip-rule="evenodd" d="M4.40002 11.82C4.40002 8.78974 6.85652 6.33325 9.88675 6.33325C12.917 6.33325 15.3735 8.78974 15.3735 11.82C15.3735 14.8502 12.917 17.3067 9.88675 17.3067C6.85652 17.3067 4.40002 14.8502 4.40002 11.82ZM0.900024 11.82C0.900024 6.85675 4.92352 2.83325 9.88675 2.83325C14.85 2.83325 18.8735 6.85675 18.8735 11.82C18.8735 13.1704 18.5756 14.4513 18.042 15.6004C17.716 16.3024 17.7877 17.1533 18.335 17.7006L21.7703 21.136C22.3874 21.753 22.3874 22.7535 21.7703 23.3705C21.1532 23.9876 20.1528 23.9876 19.5357 23.3705L16.2117 20.0465C15.6413 19.4761 14.7458 19.4241 14.0303 19.7966C12.7904 20.4419 11.3812 20.8067 9.88675 20.8067C4.92352 20.8067 0.900024 16.7832 0.900024 11.82Z" fill="#CCCCCC"/>
</svg>
